<svg width="526" height="106" viewBox="0 0 526 106" fill="none" xmlns="http://www.w3.org/2000/svg">
<path d="M3.08181 32.91H19.9568V105H3.08181V32.91ZM11.5868 21.03C8.52681 21.03 5.96181 20.085 3.89181 18.195C1.82181 16.215 0.786811 13.785 0.786811 10.905C0.786811 8.025 1.82181 5.63999 3.89181 3.74999C5.96181 1.77 8.52681 0.779998 11.5868 0.779998C14.6468 0.779998 17.2118 1.725 19.2818 3.61499C21.3518 5.415 22.3868 7.71 22.3868 10.5C22.3868 13.47 21.3518 15.99 19.2818 18.06C17.3018 20.04 14.7368 21.03 11.5868 21.03ZM74.9103 32.1C84.0003 32.1 91.2903 34.755 96.7803 40.065C102.27 45.375 105.015 53.25 105.015 63.69V105H88.1403V65.85C88.1403 59.55 86.6553 54.825 83.6853 51.675C80.7153 48.435 76.4853 46.815 70.9953 46.815C64.7852 46.815 59.8802 48.705 56.2803 52.485C52.6803 56.175 50.8803 61.53 50.8803 68.55V105H34.0052V32.91H50.0703V42.225C52.8603 38.895 56.3703 36.375 60.6003 34.665C64.8303 32.955 69.6003 32.1 74.9103 32.1ZM140.597 105.945C134.747 105.945 129.032 105.18 123.452 103.65C117.872 102.12 113.417 100.185 110.087 97.845L116.567 85.02C119.807 87.18 123.677 88.935 128.177 90.285C132.767 91.545 137.267 92.175 141.677 92.175C151.757 92.175 156.797 89.52 156.797 84.21C156.797 81.69 155.492 79.935 152.882 78.945C150.362 77.955 146.267 77.01 140.597 76.11C134.657 75.21 129.797 74.175 126.017 73.005C122.327 71.835 119.087 69.81 116.297 66.93C113.597 63.96 112.247 59.865 112.247 54.645C112.247 47.805 115.082 42.36 120.752 38.31C126.512 34.17 134.252 32.1 143.972 32.1C148.922 32.1 153.872 32.685 158.822 33.855C163.772 34.935 167.822 36.42 170.972 38.31L164.492 51.135C158.372 47.535 151.487 45.735 143.837 45.735C138.887 45.735 135.107 46.5 132.497 48.03C129.977 49.47 128.717 51.405 128.717 53.835C128.717 56.535 130.067 58.47 132.767 59.64C135.557 60.72 139.832 61.755 145.592 62.745C151.352 63.645 156.077 64.68 159.767 65.85C163.457 67.02 166.607 69 169.217 71.79C171.917 74.58 173.267 78.54 173.267 83.67C173.267 90.42 170.342 95.82 164.492 99.87C158.642 103.92 150.677 105.945 140.597 105.945ZM223.035 101.085C221.055 102.705 218.625 103.92 215.745 104.73C212.955 105.54 209.985 105.945 206.835 105.945C198.915 105.945 192.795 103.875 188.475 99.735C184.155 95.595 181.995 89.565 181.995 81.645V46.95H170.115V33.45H181.995V16.98H198.87V33.45H218.175V46.95H198.87V81.24C198.87 84.75 199.725 87.45 201.435 89.34C203.145 91.14 205.62 92.04 208.86 92.04C212.64 92.04 215.79 91.05 218.31 89.07L223.035 101.085ZM270.438 101.085C268.458 102.705 266.028 103.92 263.148 104.73C260.358 105.54 257.388 105.945 254.238 105.945C246.318 105.945 240.198 103.875 235.878 99.735C231.558 95.595 229.398 89.565 229.398 81.645V46.95H217.518V33.45H229.398V16.98H246.273V33.45H265.578V46.95H246.273V81.24C246.273 84.75 247.128 87.45 248.838 89.34C250.548 91.14 253.023 92.04 256.263 92.04C260.043 92.04 263.193 91.05 265.713 89.07L270.438 101.085ZM303.76 32.1C314.38 32.1 322.48 34.665 328.06 39.795C333.73 44.835 336.565 52.485 336.565 62.745V105H320.635V96.225C318.565 99.375 315.595 101.805 311.725 103.515C307.945 105.135 303.355 105.945 297.955 105.945C292.555 105.945 287.83 105.045 283.78 103.245C279.73 101.355 276.58 98.79 274.33 95.55C272.17 92.22 271.09 88.485 271.09 84.345C271.09 77.865 273.475 72.69 278.245 68.82C283.105 64.86 290.71 62.88 301.06 62.88H319.69V61.8C319.69 56.76 318.16 52.89 315.1 50.19C312.13 47.49 307.675 46.14 301.735 46.14C297.685 46.14 293.68 46.77 289.72 48.03C285.85 49.29 282.565 51.045 279.865 53.295L273.25 41.01C277.03 38.13 281.575 35.925 286.885 34.395C292.195 32.865 297.82 32.1 303.76 32.1ZM301.465 93.66C305.695 93.66 309.43 92.715 312.67 90.825C316 88.845 318.34 86.055 319.69 82.455V74.085H302.275C292.555 74.085 287.695 77.28 287.695 83.67C287.695 86.73 288.91 89.16 291.34 90.96C293.77 92.76 297.145 93.66 301.465 93.66ZM391.026 32.1C400.116 32.1 407.406 34.755 412.896 40.065C418.386 45.375 421.131 53.25 421.131 63.69V105H404.256V65.85C404.256 59.55 402.771 54.825 399.801 51.675C396.831 48.435 392.601 46.815 387.111 46.815C380.901 46.815 375.996 48.705 372.396 52.485C368.796 56.175 366.996 61.53 366.996 68.55V105H350.121V32.91H366.186V42.225C368.976 38.895 372.486 36.375 376.716 34.665C380.946 32.955 385.716 32.1 391.026 32.1ZM477.773 101.085C475.793 102.705 473.363 103.92 470.483 104.73C467.693 105.54 464.723 105.945 461.573 105.945C453.653 105.945 447.533 103.875 443.213 99.735C438.893 95.595 436.733 89.565 436.733 81.645V46.95H424.853V33.45H436.733V16.98H453.608V33.45H472.913V46.95H453.608V81.24C453.608 84.75 454.463 87.45 456.173 89.34C457.883 91.14 460.358 92.04 463.598 92.04C467.378 92.04 470.528 91.05 473.048 89.07L477.773 101.085ZM525.176 101.085C523.196 102.705 520.766 103.92 517.886 104.73C515.096 105.54 512.126 105.945 508.976 105.945C501.056 105.945 494.936 103.875 490.616 99.735C486.296 95.595 484.136 89.565 484.136 81.645V46.95H472.256V33.45H484.136V16.98H501.011V33.45H520.316V46.95H501.011V81.24C501.011 84.75 501.866 87.45 503.576 89.34C505.286 91.14 507.761 92.04 511.001 92.04C514.781 92.04 517.931 91.05 520.451 89.07L525.176 101.085Z" fill="white"/>
</svg>
